<?xml version="1.0" encoding="UTF-8" standalone="no"?>
<!-- Created with Inkscape (http://www.inkscape.org/) -->

<svg
   xmlns:dc="http://purl.org/dc/elements/1.1/"
   xmlns:cc="http://creativecommons.org/ns#"
   xmlns:rdf="http://www.w3.org/1999/02/22-rdf-syntax-ns#"
   xmlns:svg="http://www.w3.org/2000/svg"
   xmlns="http://www.w3.org/2000/svg"
   version="1.1"
   width="100%"
   height="100%"
   viewBox="0 0 630 630"
   id="svg2">
  <rect
     width="630"
     height="630"
     x="0"
     y="0"
     id="background"
     style="fill:#004c98;fill-opacity:1" />
  <g
     id="layer2"
     style="display:none">
    <path
       d="m 165.65,526.47375 48.2125,-29.1775 C 223.16375,513.7875 231.625,527.74 251.92,527.74 c 19.45375,0 31.71875,-7.60975 31.71875,-37.21 l 0,-201.3 59.20375,0 0,202.1375 c 0,61.32 -35.94375,89.23125 -88.385,89.23125 -47.36125,0 -74.8525,-24.52875 -88.8075,-54.13"
       id="j"
       style="fill:#ffffff" />
    <path
       d="m 375,520.13 48.20625,-27.91125 c 12.69,20.72375 29.1825,35.9475 58.36125,35.9475 24.53125,0 40.17375,-12.26475 40.17375,-29.18125 0,-20.29875 -16.06875,-27.48875 -43.135,-39.32625 l -14.7975,-6.3475 c -42.715,-18.18125 -71.05,-41.0175 -71.05,-89.2275 0,-44.40375 33.83125,-78.2375 86.695,-78.2375 37.6375,0 64.7025,13.11125 84.15375,47.36625 l -46.09625,29.60125 c -10.15,-18.1825 -21.1425,-25.37125 -38.0575,-25.37125 -17.33875,0 -28.335,10.995 -28.335,25.37125 0,17.7625 10.99625,24.9525 36.3675,35.94875 l 14.8,6.3425 c 50.325,21.56875 78.66,43.5575 78.66,93.03375 0,53.2875 -41.86625,82.465 -98.11,82.465 -54.97625,0 -90.5,-26.2175 -107.83625,-60.47375"
       id="s"
       style="fill:#ffffff" />
  </g>
  <g
     id="g3783"
     style="display:inline">
    <g
       transform="translate(0,-126)"
       id="g3789">
      <path
         d="m 165.65,526.47375 48.2125,-29.1775 C 223.16375,513.7875 231.625,527.74 251.92,527.74 c 19.45375,0 31.71875,-7.60975 31.71875,-37.21 l 0,-201.3 59.20375,0 0,202.1375 c 0,61.32 -35.94375,89.23125 -88.385,89.23125 -47.36125,0 -74.8525,-24.52875 -88.8075,-54.13"
         id="path3785"
         style="fill:#ffffff" />
      <path
         d="m 375,520.13 48.20625,-27.91125 c 12.69,20.72375 29.1825,35.9475 58.36125,35.9475 24.53125,0 40.17375,-12.26475 40.17375,-29.18125 0,-20.29875 -16.06875,-27.48875 -43.135,-39.32625 l -14.7975,-6.3475 c -42.715,-18.18125 -71.05,-41.0175 -71.05,-89.2275 0,-44.40375 33.83125,-78.2375 86.695,-78.2375 37.6375,0 64.7025,13.11125 84.15375,47.36625 l -46.09625,29.60125 c -10.15,-18.1825 -21.1425,-25.37125 -38.0575,-25.37125 -17.33875,0 -28.335,10.995 -28.335,25.37125 0,17.7625 10.99625,24.9525 36.3675,35.94875 l 14.8,6.3425 c 50.325,21.56875 78.66,43.5575 78.66,93.03375 0,53.2875 -41.86625,82.465 -98.11,82.465 -54.97625,0 -90.5,-26.2175 -107.83625,-60.47375"
         id="path3787"
         style="fill:#ffffff" />
    </g>
  </g>
  <g
     id="layer1">
    <text
       x="159.88812"
       y="578.87872"
       id="text3779"
       xml:space="preserve"
       style="font-size:40px;font-style:normal;font-variant:normal;font-weight:bold;font-stretch:normal;line-height:125%;letter-spacing:0px;word-spacing:0px;fill:#000000;fill-opacity:1;stroke:none;font-family:Neutra Text;-inkscape-font-specification:Neutra Text Bold"><tspan
         x="159.88812"
         y="578.87872"
         id="tspan3781"
         style="font-size:115px;font-style:normal;font-variant:normal;font-weight:500;font-stretch:normal;fill:#ffffff;font-family:Ubuntu;-inkscape-font-specification:Ubuntu Medium">GREECE</tspan></text>
  </g>
  <metadata
     id="metadata12">
    <rdf:RDF>
      <cc:Work
         rdf:about="">
        <dc:format>image/svg+xml</dc:format>
        <dc:type
           rdf:resource="http://purl.org/dc/dcmitype/StillImage" />
        <dc:title></dc:title>
      </cc:Work>
    </rdf:RDF>
  </metadata>
  <defs
     id="defs10" />
</svg>
